<?xml version="1.0" standalone="no"?>
<!DOCTYPE svg PUBLIC "-//W3C//DTD SVG 20010904//EN"
 "http://www.w3.org/TR/2001/REC-SVG-20010904/DTD/svg10.dtd">
<svg version="1.0" xmlns="http://www.w3.org/2000/svg"
 width="500.000000pt" height="500.000000pt" viewBox="0 0 500.000000 500.000000"
 preserveAspectRatio="xMidYMid meet">
<metadata>
Created by potrace 1.15, written by Peter Selinger 2001-2017
</metadata>
<g transform="translate(0.000000,500.000000) scale(0.100000,-0.100000)"
fill="#ffffff" stroke="none">
<path d="M1510 4153 c-27 -10 -63 -36 -92 -65 -75 -77 -78 -96 -78 -470 0
-175 3 -318 8 -318 4 0 203 31 442 69 239 38 779 124 1200 191 421 66 771 123
778 125 17 6 16 138 -2 173 -24 45 -68 80 -116 91 -25 6 -133 11 -241 11
l-196 0 -12 41 c-17 57 -93 131 -156 152 -44 15 -121 17 -769 16 -630 0 -727
-3 -766 -16z m278 -177 c28 -14 79 -64 71 -69 -2 -1 -21 -10 -42 -20 -34 -16
-40 -16 -60 -2 -53 37 -127 0 -127 -63 0 -42 57 -174 88 -205 37 -37 114 -19
133 30 10 26 3 83 -9 83 -4 -1 -18 -7 -32 -15 -14 -8 -30 -14 -36 -15 -9 0
-49 70 -42 75 14 10 143 65 153 65 17 0 57 -95 63 -150 5 -58 -16 -110 -59
-142 -72 -54 -159 -61 -219 -18 -32 23 -121 193 -135 258 -15 73 30 157 100
188 40 18 119 17 153 0z"/>
<path d="M700 3779 c-96 -15 -206 -33 -243 -40 -103 -17 -167 -82 -167 -171 0
-63 42 -160 91 -210 61 -62 90 -66 249 -43 69 11 142 19 164 20 l38 0 40 -110
c21 -60 52 -146 67 -190 16 -44 50 -138 76 -210 25 -71 55 -155 65 -185 10
-30 39 -113 65 -185 25 -71 55 -155 65 -185 10 -30 25 -73 33 -95 9 -22 32
-87 52 -145 79 -226 144 -408 155 -435 5 -11 16 -41 24 -68 62 -189 187 -326
298 -327 20 0 407 59 860 130 453 72 923 147 1046 166 278 44 293 52 317 158
10 45 -13 134 -44 169 -24 26 -36 31 -87 34 -42 3 -334 -40 -1034 -151 -907
-144 -976 -154 -988 -138 -18 23 -116 331 -109 339 4 3 456 77 1004 164 549
86 1021 163 1048 170 96 23 168 88 203 181 11 29 34 139 51 243 17 105 47 278
66 385 72 399 79 459 66 509 -14 54 -41 85 -96 114 -54 27 -137 26 -350 -8
-144 -22 -879 -140 -940 -150 -11 -2 -40 -6 -65 -9 -25 -3 -57 -9 -72 -12 -15
-3 -42 -7 -60 -10 -18 -3 -45 -7 -60 -10 -16 -2 -40 -6 -55 -8 -16 -3 -42 -7
-59 -10 -17 -3 -48 -8 -70 -11 -21 -3 -48 -8 -59 -10 -11 -1 -45 -6 -75 -10
-30 -4 -259 -40 -510 -80 -250 -40 -458 -71 -462 -69 -4 2 -23 57 -43 122 -95
309 -125 362 -228 396 -59 20 -54 20 -267 -15z"/>
<path d="M3814 1455 c-79 -84 -39 -215 73 -239 41 -9 115 22 138 58 25 38 31
106 11 143 -27 54 -61 73 -129 73 -55 0 -62 -3 -93 -35z"/>
<path d="M1765 1145 c-22 -8 -48 -25 -58 -37 -9 -13 -27 -34 -38 -47 -15 -18
-23 -44 -26 -90 -5 -55 -2 -72 18 -110 39 -74 94 -109 175 -110 91 -2 172 61
200 155 17 59 11 97 -27 159 -19 32 -71 76 -95 79 -7 1 -17 5 -20 9 -12 12
-87 7 -129 -8z"/>
</g>
</svg>
